HIERARCHY
ROOT Hips
{
  OFFSET 0 0 0
  CHANNELS 6 Xposition Yposition Zposition Zrotation Yrotation Xrotation
  JOINT LeftThigh
  {
    OFFSET 8.409438 0 -5.917753
    CHANNELS 3 Zrotation Yrotation Xrotation
    JOINT LeftLeg
    {
      OFFSET 0 0 -42.358652
      CHANNELS 3 Zrotation Yrotation Xrotation
      JOINT LeftFoot
      {
        OFFSET 0 0 -39.357303
        CHANNELS 3 Zrotation Yrotation Xrotation
      }
    }
  }
  JOINT RightThigh
  {
    OFFSET -8.409438 0 -5.917753
    CHANNELS 3 Zrotation Yrotation Xrotation
    JOINT RightLeg
    {
      OFFSET 0 0 -42.358652
      CHANNELS 3 Zrotation Yrotation Xrotation
      JOINT RightFoot
      {
        OFFSET 0 0 -39.357303
        CHANNELS 3 Zrotation Yrotation Xrotation
      }
    }
  }
  JOINT SpineLow
  {
    OFFSET 0 0 4.719101
    CHANNELS 3 Zrotation Yrotation Xrotation
    JOINT SpineMid
    {
      OFFSET 0 0 12.899191
      CHANNELS 3 Zrotation Yrotation Xrotation
      JOINT Chest
      {
        OFFSET 0 0 12.899191
        CHANNELS 3 Zrotation Yrotation Xrotation
        JOINT LeftShoulder
        {
          OFFSET 7.550562 1.41573 9.438202
          CHANNELS 3 Zrotation Yrotation Xrotation
          JOINT LeftArm
          {
            OFFSET 9.155056 0 4.247191
            CHANNELS 3 Zrotation Yrotation Xrotation
            JOINT LeftForearm
            {
              OFFSET 0 0 25.771955
              CHANNELS 3 Zrotation Yrotation Xrotation
              JOINT LeftHand
              {
                OFFSET 0 0 25.197169
                CHANNELS 3 Zrotation Yrotation Xrotation
              }
            }
          }
        }
        JOINT RightShoulder
        {
          OFFSET -7.550562 1.41573 9.438202
          CHANNELS 3 Zrotation Yrotation Xrotation
          JOINT RightArm
          {
            OFFSET -9.155056 0 4.247191
            CHANNELS 3 Zrotation Yrotation Xrotation
            JOINT RightForearm
            {
              OFFSET 0 0 -25.771955
              CHANNELS 3 Zrotation Yrotation Xrotation
              JOINT RightHand
              {
                OFFSET 0 0 -25.197169
                CHANNELS 3 Zrotation Yrotation Xrotation
              }
            }
          }
        }
        JOINT Neck
        {
          OFFSET 0 0 15.101124
          CHANNELS 3 Zrotation Yrotation Xrotation
          JOINT Head
          {
            OFFSET 0 0 11.325843
            CHANNELS 3 Zrotation Yrotation Xrotation
            End Site
            {
              OFFSET 0 0 14.157303
            }
          }
        }
      }
    }
  }
}
MOTION
Frames: 11
Frame Time: 0.0
0.0  101.685394  0.0  -0.479086  -18.913661  -101.290747  17.239743  -29.549668  -23.393548  1.042718  22.240954  49.168032  -3.209446  3.731206  1.630051  -6.165231  4.617047  21.246971  -13.202841  21.673662  7.689496  -0.453608  2.49625  -4.977322  -1.809891  0.34579  2.079646  -4.913639  1.099275  5.655449  -4.91364  1.099275  5.655448  -5.133699  24.831024  10.931278  -147.229318  70.524197  -98.742215  -39.183378  -30.045018  84.026813  71.364931  -13.610617  -9.071601  19.937276  -7.918892  29.960385  83.003346  36.490163  31.297332  -30.968121  8.99506  -107.142848  73.878001  9.952448  47.968025  10.587928  -1.494636  -5.196563  7.928472  -1.211551  -3.87268  
0.0  101.685394  0.0  -0.310101  -18.095978  -101.025714  16.424644  -29.30682  -23.511814  1.376856  22.303106  48.856944  -3.879166  3.647927  1.351685  -7.029167  4.959839  21.036517  -12.835549  21.585207  7.53915  -0.333146  2.464914  -4.869571  -1.842284  0.376427  2.03832  -5.000359  1.182545  5.539698  -5.000359  1.182545  5.539697  -5.005213  24.728078  10.957163  -148.560132  70.809503  -99.932561  -39.202994  -29.931785  84.590368  71.570569  -12.788864  -8.750131  19.988268  -7.89353  29.972248  82.946854  37.64843  31.014061  -31.559794  9.056013  -107.591228  74.300602  8.283778  47.719527  10.428665  -1.514329  -5.424851  7.808337  -1.228866  -4.043953  
0.0  101.685394  0.0  -0.09882  -17.412743  -100.721472  15.758831  -29.017525  -23.746849  1.44844  22.558343  48.380575  -3.726998  3.706823  1.400108  -7.350667  5.083227  20.720094  -12.657603  21.445878  7.550853  -0.537015  2.757927  -4.856889  -1.867931  0.40215  1.983753  -5.069428  1.25073  5.388204  -5.069429  1.25073  5.388204  -4.900128  24.666791  10.985278  -149.578067  70.869598  -100.969568  -39.203907  -29.759962  85.371014  71.835188  -11.663113  -8.373855  20.115025  -7.887704  30.009091  83.042787  39.009098  30.91858  -32.135142  8.950317  -108.071122  74.680765  6.409458  47.438336  10.313468  -1.532228  -5.67053  7.721218  -1.245423  -4.22821  
0.0  101.685394  0.0  0.170076  -16.650035  -100.353031  15.128326  -28.626463  -24.071586  1.578057  22.78964  48.064769  -3.743197  3.613432  1.331112  -7.349638  5.031118  20.281951  -12.854027  21.37438  7.619471  -1.083319  2.921626  -4.812689  -1.876363  0.437668  1.926659  -5.090892  1.343991  5.229394  -5.090892  1.343991  5.229393  -4.884032  24.634227  11.009923  -150.225082  71.02887  -101.525947  -39.224536  -29.603048  86.246245  72.225004  -10.225922  -8.048672  20.153675  -7.970085  29.956665  83.165395  40.55354  30.956031  -32.851397  8.724113  -108.561387  75.00552  4.30144  47.035189  10.152794  -1.502923  -5.942184  7.600404  -1.226457  -4.432862  
0.0  101.685394  0.0  0.534821  -15.93731  -100.015158  14.551076  -28.156388  -24.465724  1.690251  23.025449  47.830072  -3.540641  3.558595  1.409544  -7.105335  4.931809  19.756544  -13.245282  21.411374  7.803894  -1.608766  3.030078  -4.801746  -1.900221  0.476542  1.868144  -5.15445  1.447444  5.066067  -5.15445  1.447444  5.066067  -4.735078  24.665626  11.055349  -150.500876  71.212948  -101.829156  -39.338474  -29.450004  87.324169  72.731843  -8.517261  -7.834219  20.370532  -8.093537  29.868882  83.323892  42.256698  31.1431  -33.736679  8.454484  -109.023611  75.312668  1.916013  46.501819  10.028411  -1.470763  -6.270197  7.506749  -1.206508  -4.679748  
0.0  101.685394  0.0  0.802812  -15.238346  -99.625088  14.140062  -27.763513  -24.920005  1.746024  23.235953  47.659165  -3.534795  3.478849  1.356706  -6.508756  4.626961  19.281578  -14.010689  21.382084  7.973342  -2.043092  3.204627  -4.811622  -1.906593  0.50339  1.827469  -5.17086  1.518053  4.952755  -5.170859  1.518053  4.952755  -4.605553  24.721884  10.986517  -150.600941  71.482305  -101.723765  -39.341903  -29.443064  88.398437  73.34935  -6.65619  -7.79041  20.532653  -8.271868  29.604533  83.470356  44.140037  31.370906  -34.800022  8.199528  -109.471941  75.626933  -0.841003  45.833033  9.935114  -1.402693  -6.636236  7.436778  -1.160441  -4.955678  
0.0  101.685394  0.0  1.231005  -15.119895  -99.693922  14.152597  -27.417569  -24.962492  1.867337  23.330789  47.620349  -3.736996  3.416582  1.243368  -5.208429  4.44245  19.244897  -14.807337  21.298056  8.126042  -2.497844  3.361066  -4.793388  -1.859184  0.54487  1.850284  -5.037728  1.629485  5.013181  -5.037728  1.629485  5.013181  -4.24792  24.836261  10.890539  -150.473586  71.705939  -101.445113  -39.280341  -29.430418  89.588366  74.136787  -4.747679  -7.882371  20.852098  -8.4139  29.276263  83.786771  46.205573  31.741301  -36.100137  7.991047  -109.823828  75.981039  -3.898461  44.846593  9.869429  -1.314064  -7.102064  7.387667  -1.100773  -5.306736  
0.0  101.685394  0.0  1.420608  -14.267155  -99.477008  13.69449  -27.087068  -25.288691  1.971052  23.412318  47.625433  -3.980496  3.364798  1.151205  -4.551882  4.079407  19.088187  -15.648514  21.247654  8.188627  -2.915043  3.496651  -4.742291  -1.884472  0.570471  1.86093  -5.104654  1.702092  5.039693  -5.104654  1.702092  5.039692  -4.159049  24.816321  10.672397  -150.317807  72.029006  -101.061984  -39.180133  -29.540493  90.759699  74.981229  -2.845365  -7.984271  21.008873  -8.574251  28.829257  83.833835  48.579869  31.8591  -37.516799  7.88552  -110.078386  76.524804  -7.190131  43.433387  9.757423  -1.298123  -7.568165  7.303014  -1.094972  -5.656868  
0.0  101.685394  0.0  1.596408  -13.32239  -99.344197  13.232266  -26.795586  -25.573071  1.635358  23.708844  47.301925  -3.889078  3.490888  1.264631  -3.945819  3.721284  19.097338  -16.472624  21.163696  8.176024  -3.368562  3.618376  -4.685629  -1.927541  0.601395  1.878495  -5.219551  1.791139  5.084143  -5.219551  1.791139  5.084143  -3.862335  24.653858  10.589369  -150.088889  72.320997  -100.548577  -39.044707  -29.728175  91.945743  75.770839  -1.032255  -8.019834  21.138628  -8.746035  28.377884  83.769415  51.241129  31.86542  -38.925014  7.834334  -110.209351  77.384939  -10.600166  41.492501  9.544385  -1.357297  -8.047837  7.141556  -1.144242  -6.016142  
0.0  101.685394  0.0  1.748408  -12.223511  -99.124192  12.774196  -26.410913  -25.977925  1.562511  23.857655  47.389156  -4.111625  3.49759  1.157746  -3.621246  3.36414  19.122789  -17.229091  21.092976  7.991602  -3.785161  3.746536  -4.629487  -1.974987  0.627745  1.875257  -5.347329  1.866422  5.071876  -5.347328  1.866422  5.071876  -3.882181  24.537667  10.365564  -149.717362  72.742935  -100.179569  -38.935171  -30.031529  93.138567  76.503865  0.538081  -7.904379  21.161177  -8.866582  27.885986  83.39618  54.139913  31.624435  -40.225884  7.720611  -110.334873  78.643653  -14.033771  38.952231  9.361806  -1.426193  -8.389264  7.002985  -1.198775  -6.271526  
0.0  101.685394  0.0  1.900243  -11.152238  -98.810761  12.448886  -26.005989  -26.516756  1.351996  24.098548  47.456522  -4.302261  3.561143  0.996802  -3.494655  3.103819  19.199771  -17.824745  20.981113  7.605407  -4.197939  3.835389  -4.570933  -1.991078  0.656484  1.860476  -5.389635  1.944896  5.028751  -5.389635  1.944896  5.028751  -3.865996  24.286469  10.167468  -149.622636  73.203209  -99.98011  -38.918549  -30.458089  94.439891  77.053113  1.80092  -7.578912  21.009958  -9.238631  27.142069  83.044263  57.176872  31.632957  -41.434578  7.455899  -110.388183  80.307655  -17.283022  35.770714  9.046888  -1.557574  -8.67816  6.764253  -1.297308  -6.486851  
